<?xml version="1.0" encoding="UTF-8" standalone="no"?>
<!DOCTYPE svg PUBLIC "-//W3C//DTD SVG 1.1//EN"
 "http://www.w3.org/Graphics/SVG/1.1/DTD/svg11.dtd">
<!-- Generated by graphviz version 2.42.3 (20191010.1750)
 -->
<!-- Title: G Pages: 1 -->
<svg width="491pt" height="317pt"
 viewBox="0.00 0.00 490.65 317.23" xmlns="http://www.w3.org/2000/svg" xmlns:xlink="http://www.w3.org/1999/xlink">
<g id="graph0" class="graph" transform="scale(1 1) rotate(0) translate(21.6 295.63)">
<title>G</title>
<polygon fill="#111111" stroke="transparent" points="-21.6,21.6 -21.6,-295.63 469.05,-295.63 469.05,21.6 -21.6,21.6"/>
<!-- ../version.json -->
<g id="node1" class="node">
<title>../version.json</title>
<path fill="none" stroke="#cfffac" d="M330.77,-208.22C330.77,-208.22 244.16,-208.22 244.16,-208.22 240.13,-208.22 236.09,-204.19 236.09,-200.16 236.09,-200.16 236.09,-192.09 236.09,-192.09 236.09,-188.06 240.13,-184.02 244.16,-184.02 244.16,-184.02 330.77,-184.02 330.77,-184.02 334.8,-184.02 338.84,-188.06 338.84,-192.09 338.84,-192.09 338.84,-200.16 338.84,-200.16 338.84,-204.19 334.8,-208.22 330.77,-208.22"/>
<text text-anchor="middle" x="287.46" y="-192.97" font-family="Arial" font-size="14.00" fill="#cfffac">../version.json</text>
</g>
<!-- attorney.js -->
<g id="node2" class="node">
<title>attorney.js</title>
<path fill="none" stroke="#cfffac" d="M318.95,-166.22C318.95,-166.22 255.98,-166.22 255.98,-166.22 251.95,-166.22 247.92,-162.19 247.92,-158.16 247.92,-158.16 247.92,-150.09 247.92,-150.09 247.92,-146.06 251.95,-142.02 255.98,-142.02 255.98,-142.02 318.95,-142.02 318.95,-142.02 322.98,-142.02 327.01,-146.06 327.01,-150.09 327.01,-150.09 327.01,-158.16 327.01,-158.16 327.01,-162.19 322.98,-166.22 318.95,-166.22"/>
<text text-anchor="middle" x="287.46" y="-150.97" font-family="Arial" font-size="14.00" fill="#cfffac">attorney.js</text>
</g>
<!-- boss.js -->
<g id="node3" class="node">
<title>boss.js</title>
<path fill="none" stroke="#c6c5fe" d="M166.71,-84.22C166.71,-84.22 123.7,-84.22 123.7,-84.22 119.67,-84.22 115.63,-80.19 115.63,-76.16 115.63,-76.16 115.63,-68.09 115.63,-68.09 115.63,-64.06 119.67,-60.02 123.7,-60.02 123.7,-60.02 166.71,-60.02 166.71,-60.02 170.75,-60.02 174.78,-64.06 174.78,-68.09 174.78,-68.09 174.78,-76.16 174.78,-76.16 174.78,-80.19 170.75,-84.22 166.71,-84.22"/>
<text text-anchor="middle" x="145.21" y="-68.97" font-family="Arial" font-size="14.00" fill="#c6c5fe">boss.js</text>
</g>
<!-- plans.js -->
<g id="node4" class="node">
<title>plans.js</title>
<path fill="none" stroke="#cfffac" d="M439.62,-126.22C439.62,-126.22 391.82,-126.22 391.82,-126.22 387.78,-126.22 383.75,-122.19 383.75,-118.16 383.75,-118.16 383.75,-110.09 383.75,-110.09 383.75,-106.06 387.78,-102.02 391.82,-102.02 391.82,-102.02 439.62,-102.02 439.62,-102.02 443.66,-102.02 447.69,-106.06 447.69,-110.09 447.69,-110.09 447.69,-118.16 447.69,-118.16 447.69,-122.19 443.66,-126.22 439.62,-126.22"/>
<text text-anchor="middle" x="415.72" y="-110.97" font-family="Arial" font-size="14.00" fill="#cfffac">plans.js</text>
</g>
<!-- boss.js&#45;&gt;plans.js -->
<g id="edge1" class="edge">
<title>boss.js&#45;&gt;plans.js</title>
<path fill="none" stroke="#757575" d="M175.07,-61.48C215.27,-48.4 289.76,-30.52 347.99,-53.12 369.02,-61.29 387.48,-79.52 399.62,-93.94"/>
<polygon fill="#757575" stroke="#757575" points="397.01,-96.29 406.01,-101.89 402.47,-91.9 397.01,-96.29"/>
</g>
<!-- contractor.js -->
<g id="node5" class="node">
<title>contractor.js</title>
<path fill="none" stroke="#c6c5fe" d="M183.12,-229.22C183.12,-229.22 107.3,-229.22 107.3,-229.22 103.26,-229.22 99.23,-225.19 99.23,-221.16 99.23,-221.16 99.23,-213.09 99.23,-213.09 99.23,-209.06 103.26,-205.02 107.3,-205.02 107.3,-205.02 183.12,-205.02 183.12,-205.02 187.15,-205.02 191.18,-209.06 191.18,-213.09 191.18,-213.09 191.18,-221.16 191.18,-221.16 191.18,-225.19 187.15,-229.22 183.12,-229.22"/>
<text text-anchor="middle" x="145.21" y="-213.97" font-family="Arial" font-size="14.00" fill="#c6c5fe">contractor.js</text>
</g>
<!-- contractor.js&#45;&gt;../version.json -->
<g id="edge2" class="edge">
<title>contractor.js&#45;&gt;../version.json</title>
<path fill="none" stroke="#757575" d="M190.97,-210.42C202.01,-208.77 214.01,-206.97 225.67,-205.23"/>
<polygon fill="#757575" stroke="#757575" points="226.42,-208.65 235.79,-203.71 225.38,-201.73 226.42,-208.65"/>
</g>
<!-- contractor.js&#45;&gt;plans.js -->
<g id="edge4" class="edge">
<title>contractor.js&#45;&gt;plans.js</title>
<path fill="none" stroke="#757575" d="M164.53,-229.2C202.02,-252.24 288.93,-296.95 347.99,-259.12 390.54,-231.86 406.33,-169.85 411.9,-136.44"/>
<polygon fill="#757575" stroke="#757575" points="415.4,-136.7 413.41,-126.29 408.47,-135.66 415.4,-136.7"/>
</g>
<!-- migrationStore.js -->
<g id="node6" class="node">
<title>migrationStore.js</title>
<path fill="none" stroke="#c6c5fe" d="M339.94,-250.22C339.94,-250.22 234.99,-250.22 234.99,-250.22 230.96,-250.22 226.92,-246.19 226.92,-242.16 226.92,-242.16 226.92,-234.09 226.92,-234.09 226.92,-230.06 230.96,-226.02 234.99,-226.02 234.99,-226.02 339.94,-226.02 339.94,-226.02 343.97,-226.02 348.01,-230.06 348.01,-234.09 348.01,-234.09 348.01,-242.16 348.01,-242.16 348.01,-246.19 343.97,-250.22 339.94,-250.22"/>
<text text-anchor="middle" x="287.46" y="-234.97" font-family="Arial" font-size="14.00" fill="#c6c5fe">migrationStore.js</text>
</g>
<!-- contractor.js&#45;&gt;migrationStore.js -->
<g id="edge3" class="edge">
<title>contractor.js&#45;&gt;migrationStore.js</title>
<path fill="none" stroke="#757575" d="M190.97,-223.82C199.24,-225.06 208.06,-226.38 216.86,-227.7"/>
<polygon fill="#757575" stroke="#757575" points="216.36,-231.17 226.77,-229.18 217.4,-224.24 216.36,-231.17"/>
</g>
<!-- migrationStore.js&#45;&gt;plans.js -->
<g id="edge14" class="edge">
<title>migrationStore.js&#45;&gt;plans.js</title>
<path fill="none" stroke="#757575" d="M333.4,-225.95C338.59,-223.5 343.6,-220.58 347.99,-217.12 375.53,-195.41 395.25,-159.02 405.81,-135.82"/>
<polygon fill="#757575" stroke="#757575" points="409.1,-137.04 409.9,-126.47 402.69,-134.23 409.1,-137.04"/>
</g>
<!-- db.js -->
<g id="node7" class="node">
<title>db.js</title>
<path fill="none" stroke="#cfffac" d="M164.14,-42.22C164.14,-42.22 126.27,-42.22 126.27,-42.22 122.24,-42.22 118.21,-38.19 118.21,-34.16 118.21,-34.16 118.21,-26.09 118.21,-26.09 118.21,-22.06 122.24,-18.02 126.27,-18.02 126.27,-18.02 164.14,-18.02 164.14,-18.02 168.17,-18.02 172.21,-22.06 172.21,-26.09 172.21,-26.09 172.21,-34.16 172.21,-34.16 172.21,-38.19 168.17,-42.22 164.14,-42.22"/>
<text text-anchor="middle" x="145.21" y="-26.97" font-family="Arial" font-size="14.00" fill="#cfffac">db.js</text>
</g>
<!-- index.js -->
<g id="node8" class="node">
<title>index.js</title>
<path fill="none" stroke="#c6c5fe" d="M55.64,-105.22C55.64,-105.22 7.83,-105.22 7.83,-105.22 3.8,-105.22 -0.24,-101.19 -0.24,-97.16 -0.24,-97.16 -0.24,-89.09 -0.24,-89.09 -0.24,-85.06 3.8,-81.02 7.83,-81.02 7.83,-81.02 55.64,-81.02 55.64,-81.02 59.67,-81.02 63.7,-85.06 63.7,-89.09 63.7,-89.09 63.7,-97.16 63.7,-97.16 63.7,-101.19 59.67,-105.22 55.64,-105.22"/>
<text text-anchor="middle" x="31.73" y="-89.97" font-family="Arial" font-size="14.00" fill="#c6c5fe">index.js</text>
</g>
<!-- index.js&#45;&gt;attorney.js -->
<g id="edge5" class="edge">
<title>index.js&#45;&gt;attorney.js</title>
<path fill="none" stroke="#757575" d="M47.6,-105.32C60.48,-115.17 80.05,-128.44 99.47,-135.12 144.45,-150.61 198.85,-154.62 237.35,-155.2"/>
<polygon fill="#757575" stroke="#757575" points="237.74,-158.7 247.76,-155.28 237.79,-151.7 237.74,-158.7"/>
</g>
<!-- index.js&#45;&gt;boss.js -->
<g id="edge6" class="edge">
<title>index.js&#45;&gt;boss.js</title>
<path fill="none" stroke="#757575" d="M63.49,-87.33C76.43,-84.89 91.64,-82.03 105.34,-79.44"/>
<polygon fill="#757575" stroke="#757575" points="106.29,-82.83 115.47,-77.54 104.99,-75.95 106.29,-82.83"/>
</g>
<!-- index.js&#45;&gt;plans.js -->
<g id="edge10" class="edge">
<title>index.js&#45;&gt;plans.js</title>
<path fill="none" stroke="#757575" d="M38.13,-80.78C47.41,-61.3 68.44,-24.1 99.47,-9.12 136.08,8.55 150.47,-5.29 190.94,-9.12 261.69,-15.82 286.19,-4.05 347.99,-39.12 370.88,-52.12 389.99,-75.88 401.81,-93.19"/>
<polygon fill="#757575" stroke="#757575" points="399.19,-95.58 407.6,-102.03 405.05,-91.75 399.19,-95.58"/>
</g>
<!-- index.js&#45;&gt;contractor.js -->
<g id="edge7" class="edge">
<title>index.js&#45;&gt;contractor.js</title>
<path fill="none" stroke="#757575" d="M43.55,-105.38C56.71,-120.26 79.63,-146.11 99.47,-168.12 108.09,-177.69 117.71,-188.24 125.82,-197.1"/>
<polygon fill="#757575" stroke="#757575" points="123.43,-199.67 132.76,-204.68 128.59,-194.94 123.43,-199.67"/>
</g>
<!-- index.js&#45;&gt;db.js -->
<g id="edge8" class="edge">
<title>index.js&#45;&gt;db.js</title>
<path fill="none" stroke="#757575" d="M50.78,-80.92C64.01,-72.18 82.53,-60.38 99.47,-51.12 102.5,-49.47 105.68,-47.81 108.89,-46.2"/>
<polygon fill="#757575" stroke="#757575" points="110.46,-49.33 117.91,-41.81 107.39,-43.04 110.46,-49.33"/>
</g>
<!-- manager.js -->
<g id="node9" class="node">
<title>manager.js</title>
<path fill="none" stroke="#c6c5fe" d="M179.62,-126.22C179.62,-126.22 110.79,-126.22 110.79,-126.22 106.76,-126.22 102.72,-122.19 102.72,-118.16 102.72,-118.16 102.72,-110.09 102.72,-110.09 102.72,-106.06 106.76,-102.02 110.79,-102.02 110.79,-102.02 179.62,-102.02 179.62,-102.02 183.66,-102.02 187.69,-106.06 187.69,-110.09 187.69,-110.09 187.69,-118.16 187.69,-118.16 187.69,-122.19 183.66,-126.22 179.62,-126.22"/>
<text text-anchor="middle" x="145.21" y="-110.97" font-family="Arial" font-size="14.00" fill="#c6c5fe">manager.js</text>
</g>
<!-- index.js&#45;&gt;manager.js -->
<g id="edge9" class="edge">
<title>index.js&#45;&gt;manager.js</title>
<path fill="none" stroke="#757575" d="M63.49,-98.92C72.58,-100.63 82.78,-102.55 92.8,-104.44"/>
<polygon fill="#757575" stroke="#757575" points="92.23,-107.89 102.7,-106.3 93.52,-101.01 92.23,-107.89"/>
</g>
<!-- manager.js&#45;&gt;attorney.js -->
<g id="edge11" class="edge">
<title>manager.js&#45;&gt;attorney.js</title>
<path fill="none" stroke="#757575" d="M187.53,-125.91C203.32,-130.41 221.47,-135.59 237.88,-140.27"/>
<polygon fill="#757575" stroke="#757575" points="237.26,-143.73 247.84,-143.11 239.18,-137 237.26,-143.73"/>
</g>
<!-- manager.js&#45;&gt;plans.js -->
<g id="edge12" class="edge">
<title>manager.js&#45;&gt;plans.js</title>
<path fill="none" stroke="#757575" d="M187.57,-114.12C238.11,-114.12 323.1,-114.12 373.55,-114.12"/>
<polygon fill="#757575" stroke="#757575" points="373.77,-117.62 383.77,-114.12 373.77,-110.62 373.77,-117.62"/>
</g>
<!-- worker.js -->
<g id="node10" class="node">
<title>worker.js</title>
<path fill="none" stroke="#cfffac" d="M315.13,-86.22C315.13,-86.22 259.8,-86.22 259.8,-86.22 255.76,-86.22 251.73,-82.19 251.73,-78.16 251.73,-78.16 251.73,-70.09 251.73,-70.09 251.73,-66.06 255.76,-62.02 259.8,-62.02 259.8,-62.02 315.13,-62.02 315.13,-62.02 319.17,-62.02 323.2,-66.06 323.2,-70.09 323.2,-70.09 323.2,-78.16 323.2,-78.16 323.2,-82.19 319.17,-86.22 315.13,-86.22"/>
<text text-anchor="middle" x="287.46" y="-70.97" font-family="Arial" font-size="14.00" fill="#cfffac">worker.js</text>
</g>
<!-- manager.js&#45;&gt;worker.js -->
<g id="edge13" class="edge">
<title>manager.js&#45;&gt;worker.js</title>
<path fill="none" stroke="#757575" d="M187.53,-102.34C204.55,-97.48 224.32,-91.85 241.68,-86.89"/>
<polygon fill="#757575" stroke="#757575" points="242.93,-90.18 251.59,-84.07 241.02,-83.44 242.93,-90.18"/>
</g>
</g>
</svg>
